# xmcd
#
# Track frame offsets:
#	150
#	13479
#	28434
#	50230
#
# Disc length: 908 seconds
#
# Revision: 1
# Processed by: cddbd v1.5.2PL0 Copyright (c) Steve Scherf et al.
# Submitted via: audiograbber 1.83.01
#
DISCID=3b038a04
DTITLE=The Monuments - The Monuments
DYEAR=2008
DGENRE=Country
TTITLE0=I Believe
TTITLE1=Freight Train Blues
TTITLE2=Slip Away
TTITLE3=If I Tell You
EXTD=http://www.themonuments.co.uk
EXTT0=
EXTT1=
EXTT2=
EXTT3=
PLAYORDER=
